<?xml version="1.0" standalone="no"?>
<!DOCTYPE svg PUBLIC "-//W3C//DTD SVG 20010904//EN" "http://www.w3.org/TR/2001/REC-SVG-20010904/DTD/svg10.dtd">
<svg version="1.0" xmlns="http://www.w3.org/2000/svg"
	width="265.000000pt" height="248.000000pt" viewBox="0 0 265.000000 248.000000"
	preserveAspectRatio="xMidYMid meet">

	<g transform="translate(0.000000,248.000000) scale(0.100000,-0.100000)"
		fill="#000000" stroke="none">
		<path d="M0 1245 l0 -1235 1325 0 1325 0 0 1235 0 1235 -1325 0 -1325 0 0
-1235z m366 501 c28 -70 27 -66 12 -66 -7 0 -29 43 -48 95 l-34 96 -18 -33
c-9 -18 -17 -42 -18 -53 0 -11 -7 -29 -15 -39 -8 -11 -15 -30 -15 -43 0 -14
-6 -23 -16 -23 -9 0 -14 4 -12 8 2 5 23 57 48 117 l45 108 24 -54 c13 -30 34
-81 47 -113z m207 157 l-43 -4 0 -51 0 -50 35 4 c21 2 35 0 35 -7 0 -7 -14 -9
-35 -7 l-35 4 0 -56 c0 -39 -4 -56 -13 -56 -10 0 -12 23 -9 100 3 70 1 105 -8
115 -11 13 -4 15 51 13 49 -1 54 -2 22 -5z m321 -9 c9 -8 16 -20 16 -27 0 -6
-9 -1 -21 12 -30 32 -104 27 -132 -11 -38 -51 -22 -141 29 -169 13 -7 22 -14
20 -16 -2 -3 -18 3 -36 12 -67 34 -77 141 -18 190 36 30 116 35 142 9z m343 9
l-48 -4 3 -47 c3 -46 3 -47 41 -50 20 -2 37 -6 37 -10 0 -4 -19 -6 -42 -4
l-41 4 6 -56 c4 -43 3 -56 -8 -56 -11 0 -14 26 -17 115 l-3 115 60 -2 c58 -2
58 -2 12 -5z m185 -98 c-4 -117 3 -129 59 -108 23 9 29 9 29 -3 0 -10 -15 -14
-57 -14 l-58 0 0 115 c0 96 3 115 15 115 13 0 14 -17 12 -105z m366 91 c40
-21 56 -58 53 -124 -1 -24 -60 -92 -79 -92 -6 0 2 13 18 29 16 16 32 40 36 55
9 37 -4 94 -27 117 -19 19 -71 25 -104 13 -24 -10 -45 -58 -45 -105 0 -33 6
-47 34 -75 38 -38 37 -42 -4 -17 -63 37 -73 134 -19 184 35 33 91 39 137 15z
m335 -7 c60 -47 56 -151 -7 -190 -46 -28 -50 -23 -10 14 31 28 36 39 36 80 2
71 -25 102 -87 102 -41 0 -51 -4 -69 -28 -40 -53 -18 -155 37 -177 19 -7 19
-9 4 -9 -11 -1 -34 14 -53 33 -28 28 -34 42 -34 76 0 47 23 93 54 109 37 17
101 13 129 -10z m262 7 c26 -18 24 -74 -2 -96 -21 -16 -21 -16 13 -63 31 -43
35 -58 9 -39 -13 9 -75 88 -75 95 0 2 9 7 19 10 55 14 41 90 -18 95 l-33 3 4
-110 c2 -81 0 -111 -9 -111 -8 0 -13 35 -15 115 l-3 115 46 0 c25 0 54 -6 64
-14z m-1463 -141 c-4 -35 -44 -75 -74 -75 -7 0 2 8 20 17 31 15 33 20 30 55
-3 29 0 38 12 38 12 0 15 -8 12 -35z m-324 -193 l-47 -3 0 -101 0 -100 49 4
c27 3 47 1 44 -4 -3 -4 -31 -8 -62 -8 l-57 0 0 107 0 108 50 5 c28 3 55 3 60
0 6 -3 -11 -6 -37 -8z m782 8 c0 -5 -18 -10 -40 -10 l-40 0 0 -101 0 -102 45
5 c25 3 45 2 45 -3 0 -5 -28 -9 -62 -9 l-63 0 3 109 3 110 47 4 c26 2 50 4 55
5 4 1 7 -2 7 -8z m550 0 c0 -5 -18 -10 -41 -10 l-40 0 3 -105 c2 -88 1 -105
-12 -105 -13 0 -14 17 -12 105 l3 105 -43 2 c-24 1 -2 5 47 8 50 3 91 7 93 8
1 1 2 -2 2 -8z m180 -10 c0 -5 -7 -7 -15 -4 -8 4 -12 10 -9 15 6 11 24 2 24
-11z m-1320 -1 c0 -14 39 -69 49 -69 4 0 16 18 27 40 13 27 26 40 39 40 11 0
15 -4 10 -8 -19 -13 -65 -81 -65 -94 0 -16 47 -88 68 -105 14 -11 13 -13 -9
-13 -18 1 -29 11 -44 42 -11 23 -25 43 -30 45 -13 4 -57 -65 -50 -77 4 -6 -6
-10 -22 -10 -17 0 -23 3 -16 8 14 9 73 93 73 105 0 4 -16 30 -35 57 -32 45
-33 50 -15 50 11 0 20 -5 20 -11z m354 -11 c21 -30 20 -54 -4 -78 -31 -31 -43
-24 -19 10 19 25 21 33 11 55 -9 19 -19 25 -42 25 l-31 0 3 -105 c3 -99 2
-105 -17 -105 -19 0 -20 6 -17 110 l3 110 49 0 c39 0 52 -4 64 -22z m480 0
c22 -32 20 -55 -8 -82 l-25 -22 40 -47 c22 -26 38 -47 34 -47 -18 0 -43 23
-73 63 -31 43 -31 46 -12 52 29 9 42 39 30 69 -7 20 -16 26 -40 26 l-31 0 3
-105 c3 -99 2 -105 -17 -105 -19 0 -20 6 -17 110 l3 110 49 0 c39 0 52 -4 64
-22z m429 15 c-25 -10 -15 -60 17 -83 44 -31 62 -70 47 -101 -7 -13 -21 -25
-32 -26 -14 -2 -15 -1 -5 4 43 18 39 46 -15 99 -28 27 -45 52 -45 67 0 24 17
48 35 46 5 0 4 -3 -2 -6z m-683 -103 c0 -5 -4 -10 -10 -10 -5 0 -10 5 -10 10
0 6 5 10 10 10 6 0 10 -4 10 -10z m670 -100 c13 -8 13 -10 -2 -10 -9 0 -20 5
-23 10 -8 13 5 13 25 0z m-1015 -235 c0 -96 -3 -115 -15 -115 -12 0 -15 19
-15 115 0 96 3 115 15 115 12 0 15 -19 15 -115z m317 23 c-1 -51 -4 -102 -5
-113 -2 -16 -18 -3 -77 61 -41 45 -81 83 -87 83 -16 1 -18 -121 -3 -150 9 -15
7 -19 -7 -19 -16 0 -18 10 -15 110 2 60 5 110 8 110 3 0 43 -39 90 -87 l85
-88 -3 93 c-2 56 1 92 7 92 6 0 9 -36 7 -92z m294 78 c10 -8 16 -18 12 -21 -4
-4 -14 0 -23 9 -10 9 -33 16 -55 16 -103 0 -125 -170 -26 -210 l21 -9 -22 0
c-28 -1 -79 50 -86 87 -10 52 12 105 55 129 31 17 100 16 124 -1z m24 -169 c0
-2 -10 -12 -21 -23 -22 -19 -22 -19 -8 4 12 19 29 30 29 19z m-53 -43 c-3 -3
-12 -4 -19 -1 -8 3 -5 6 6 6 11 1 17 -2 13 -5z m-990 -401 c-2 -16 -4 -5 -4
22 0 28 2 40 4 28 2 -13 2 -35 0 -50z m270 0 c-2 -16 -4 -5 -4 22 0 28 2 40 4
28 2 -13 2 -35 0 -50z m148 5 c0 -16 -3 -28 -7 -28 -5 0 -8 12 -8 26 0 14 -5
35 -11 47 -11 22 -11 22 7 2 11 -11 19 -32 19 -47z m227 17 c0 -20 -3 -39 -6
-42 -3 -4 -6 15 -6 42 0 27 3 46 6 42 3 -3 6 -22 6 -42z m55 -22 c-2 -16 -4
-5 -4 22 0 28 2 40 4 28 2 -13 2 -35 0 -50z m430 0 c-2 -16 -4 -5 -4 22 0 28
2 40 4 28 2 -13 2 -35 0 -50z m172 27 c0 -10 -3 -8 -9 5 -12 27 -12 43 0 25 5
-8 9 -22 9 -30z m541 -5 c0 -25 -3 -45 -8 -45 -4 0 -6 20 -4 45 2 25 6 45 8
45 2 0 4 -20 4 -45z m-2343 -17 c-2 -13 -4 -5 -4 17 -1 22 1 32 4 23 2 -10 2
-28 0 -40z m73 22 c0 -16 -2 -30 -4 -30 -2 0 -6 14 -8 30 -3 17 -1 30 4 30 4
0 8 -13 8 -30z m167 -2 c-3 -7 -5 -2 -5 12 0 14 2 19 5 13 2 -7 2 -19 0 -25z
m146 -3 c20 -41 20 -45 8 -45 -5 0 -12 14 -16 30 -4 17 -11 30 -16 30 -5 0 -9
5 -9 10 0 21 17 8 33 -25z m957 25 c0 -5 -5 -10 -11 -10 -5 0 -7 5 -4 10 3 6
8 10 11 10 2 0 4 -4 4 -10z m167 -12 c-3 -12 -1 -31 5 -42 9 -18 6 -17 -14 4
-18 18 -21 26 -11 28 7 2 13 10 13 18 0 8 3 14 6 14 4 0 4 -10 1 -22z m180
-30 c-2 -13 -4 -5 -4 17 -1 22 1 32 4 23 2 -10 2 -28 0 -40z m163 26 c0 -8 5
-12 10 -9 6 3 10 0 10 -8 0 -26 -13 -27 -27 -1 -15 31 -17 48 -3 39 6 -3 10
-13 10 -21z m135 -8 c0 -19 -3 -32 -7 -29 -14 8 -8 63 6 63 1 0 1 -15 1 -34z
m75 6 c0 -9 -4 -23 -8 -29 -5 -8 -8 1 -8 22 0 18 4 31 8 29 4 -3 8 -13 8 -22z
m163 -43 c-5 -5 -6 11 -3 34 4 41 5 41 8 8 2 -18 0 -37 -5 -42z m-66 24 c-3
-10 -5 -4 -5 12 0 17 2 24 5 18 2 -7 2 -21 0 -30z m240 0 c-3 -10 -5 -4 -5 12
0 17 2 24 5 18 2 -7 2 -21 0 -30z m-1037 8 c0 -5 3 -18 6 -28 6 -16 5 -16 -9
2 -19 23 -21 35 -7 35 6 0 10 -4 10 -9z m453 -16 c-3 -9 -8 -14 -10 -11 -3 3
-2 9 2 15 9 16 15 13 8 -4z m-841 -117 c2 -21 0 -38 -4 -38 -4 0 -8 21 -7 48
1 52 6 48 11 -10z m178 5 l0 -47 -34 33 -35 34 -4 -34 c-3 -31 -4 -30 -5 9 -1
23 1 42 5 42 4 0 20 -12 35 -27 l28 -27 0 32 c0 18 2 32 5 32 3 0 5 -21 5 -47z
m547 -20 c-2 -16 -4 -5 -4 22 0 28 2 40 4 28 2 -13 2 -35 0 -50z m233 22 c0
-25 -3 -45 -8 -45 -4 0 -6 20 -4 45 2 25 6 45 8 45 2 0 4 -20 4 -45z m117 -22
c-2 -16 -4 -5 -4 22 0 28 2 40 4 28 2 -13 2 -35 0 -50z m-1850 -5 c-2 -13 -4
-3 -4 22 0 25 2 35 4 23 2 -13 2 -33 0 -45z m143 22 c0 -22 -4 -40 -10 -40 -5
0 -10 18 -10 40 0 22 5 40 10 40 6 0 10 -18 10 -40z m135 1 c0 -22 -3 -37 -7
-34 -14 8 -8 73 6 73 1 0 1 -18 1 -39z m63 -7 c-2 -15 -10 -29 -18 -31 -12 -4
-13 -3 -1 5 9 6 12 21 9 41 -3 19 -1 28 4 23 5 -5 8 -22 6 -38z m107 26 c-3
-10 -1 -28 5 -40 6 -11 8 -20 6 -20 -12 0 -27 42 -21 60 4 11 9 20 11 20 3 0
3 -9 -1 -20z m73 -21 c-3 -20 -5 -19 -9 9 -3 20 -2 29 4 23 5 -5 7 -19 5 -32z
m133 17 c-7 -9 -6 -19 5 -34 8 -12 11 -22 7 -22 -17 0 -35 41 -24 54 6 7 7 17
3 21 -4 5 -1 5 6 1 9 -6 10 -12 3 -20z m404 4 c-3 -10 -1 -28 5 -40 6 -11 8
-20 6 -20 -12 0 -27 42 -21 60 4 11 9 20 11 20 3 0 3 -9 -1 -20z m319 -59 c-7
-7 -12 3 -18 34 l-6 30 14 -30 c8 -16 12 -32 10 -34z m630 32 c10 -25 3 -23
-17 3 -13 18 -14 22 -3 18 8 -3 17 -13 20 -21z m-887 -15 c-3 -8 -6 -5 -6 6
-1 11 2 17 5 13 3 -3 4 -12 1 -19z m203 -3 c0 -8 -4 -15 -10 -15 -5 0 -7 7 -4
15 4 8 8 15 10 15 2 0 4 -7 4 -15z m-700 -5 c0 -5 -5 -10 -11 -10 -5 0 -7 5
-4 10 3 6 8 10 11 10 2 0 4 -4 4 -10z m17 -107 c-2 -16 -4 -5 -4 22 0 28 2 40
4 28 2 -13 2 -35 0 -50z m135 15 c2 -21 0 -38 -4 -38 -4 0 -8 21 -7 48 1 52 6
48 11 -10z m178 5 l0 -47 -34 33 -35 34 -4 -34 c-3 -31 -4 -30 -5 9 -1 23 1
42 5 42 4 0 20 -12 35 -27 l28 -27 0 32 c0 18 2 32 5 32 3 0 5 -21 5 -47z
m107 -20 c-2 -16 -4 -5 -4 22 0 28 2 40 4 28 2 -13 2 -35 0 -50z m173 -8 c0
-3 -11 7 -25 23 -14 17 -25 33 -25 37 0 3 11 -7 25 -23 14 -17 25 -33 25 -37z" />
	</g>
</svg>